# xmcd
#
# Track frame offsets:
#	150
#	16624
#	29251
#	42876
#	58450
#	73478
#	88727
#	106512
#	118146
#	133926
#	152458
#	165460
#	181579
#	207459
#
# Disc length: 2914 seconds
# Revision: 0
# Processed by: cddbd v1.5.2PL0 Copyright (c) Steve Scherf et al.
# Submitted via: dBpowerAMP V12.0
#
DISCID=ba0b600e
DTITLE=Paul Breugel, Yvonne Mandigers, Rini Swinkels, Arjen van El, Sebastian Ohm, Jos van de Heuvel, Leo Bouwmeester, Eus Manage, Hans ruigrok, Robert-Jan van Schoonacker - Heat Up The Tracks!
DYEAR=2011
DGENRE=Blues
TTITLE0=She's Fine
TTITLE1=As Long As I'm Moving
TTITLE2=Get On The Right Track
TTITLE3=5-10-15 Hours
TTITLE4=Anything For You
TTITLE5=It Won't Be Long
TTITLE6=Rollin'With My Baby
TTITLE7=I Can't Hear A Word You Say
TTITLE8=How Do You Feel
TTITLE9=You're Driving Me Crazy
TTITLE10=You Don't Have To Say You Love Me
TTITLE11=Man Enough
TTITLE12=I'm Your Man
TTITLE13=Somebody Touched Me
EXTD=
EXTT0=
EXTT1=
EXTT2=
EXTT3=
EXTT4=
EXTT5=
EXTT6=
EXTT7=
EXTT8=
EXTT9=
EXTT10=
EXTT11=
EXTT12=
EXTT13=
PLAYORDER=
